<?xml version="1.0" encoding="utf-8"?>
<!-- Generator: Adobe Illustrator 24.2.1, SVG Export Plug-In . SVG Version: 6.00 Build 0)  -->
<svg version="1.1"
	 id="svg2" inkscape:version="0.48.5 r10040" sodipodi:docname="A.svg" xmlns:cc="http://creativecommons.org/ns#" xmlns:dc="http://purl.org/dc/elements/1.1/" xmlns:inkscape="http://www.inkscape.org/namespaces/inkscape" xmlns:rdf="http://www.w3.org/1999/02/22-rdf-syntax-ns#" xmlns:sodipodi="http://sodipodi.sourceforge.net/DTD/sodipodi-0.dtd" xmlns:svg="http://www.w3.org/2000/svg"
	 xmlns="http://www.w3.org/2000/svg" xmlns:xlink="http://www.w3.org/1999/xlink" x="0px" y="0px" viewBox="0 0 999 227.15"
	 style="enable-background:new 0 0 999 227.15;" xml:space="preserve">
<style type="text/css">
	.st0{fill:#204133;}
</style>
<sodipodi:namedview  bordercolor="#666666" borderopacity="1.0" fit-margin-bottom="0.5" fit-margin-left="0.5" fit-margin-right="0.5" fit-margin-top="0.5" id="base" inkscape:current-layer="layer1" inkscape:cx="406.1158" inkscape:cy="-14.744868" inkscape:document-units="px" inkscape:pageopacity="0.0" inkscape:pageshadow="2" inkscape:window-height="1038" inkscape:window-maximized="0" inkscape:window-width="1009" inkscape:window-x="898" inkscape:window-y="-21" inkscape:zoom="0.5" pagecolor="#ffffff" showgrid="false">
	
		<inkscape:grid  empspacing="5" enabled="true" id="grid2996" originx="-732.63861px" originy="-716.48453px" snapvisiblegridlinesonly="true" type="xygrid" visible="true">
		</inkscape:grid>
</sodipodi:namedview>
<g id="g3238" transform="translate(480.6049,58.7256)">
	<path id="path3240" inkscape:connector-curvature="0" class="st0" d="M-178.68,107.51c-3.9,0-5.31,0.51-9.78,0.51
		c-3.09,0-3.09-2.51-3.09-26.64v-81.9c0-7.31-3.33-11-9.98-11l0,0h-0.01c-3.16,0-6.79,0.64-11.02,0.64c-4.23,0-5.91-0.65-10.68-0.65
		c-6.57,0-10.08,5.13-10.08,9.11c0,0.95,0.55,8.72,10.71,8.72c0.6,0,8.72-0.52,8.72-0.52c4.01,0,4.06,0.01,4.06,25.88
		c-0.01,0.27,0,31.27,0,31.27c0,32.52-12.8,48.28-39.2,48.28c-23.31,0-33.24-11.39-33.24-38.2V-0.52c0-7.87-4.5-11-9.98-11
		c-3.17,0-6.79,0.64-11.02,0.64c-4.24,0-5.91-0.65-10.68-0.65c-1.17,0-2.25,0.16-3.24,0.45c-4.35,1.27-6.85,5.05-6.85,8.66
		c0,0.95,0.56,8.72,10.72,8.72c1.63,0,8.72-0.52,8.72-0.52c4.01,0,4.05,0.01,4.05,25.88l-0.01,40.14c0,26.17,5.91,56.24,52.1,56.24
		c19.26,0,31.46-7.53,38.63-14.75c0,0,0.04,1.74,0.06,2.08c0.32,6.59,3.63,9.97,9.92,9.97c2.96,0,6.14-0.66,11.02-0.66
		c4.23,0,5.4,0.66,10.69,0.66c1.12,0,3.19-0.44,3.23-0.45c4.36-1.28,6.85-5.05,6.85-8.67
		C-168.05,115.06-168.91,107.51-178.68,107.51"/>
</g>
<g id="g3242" transform="translate(528.4028,66.9097)">
	<path id="path3244" inkscape:connector-curvature="0" class="st0" d="M83.97,46.17c0.32-32.4,22.58-51.77,44.32-51.77
		c18.99,0,32.18,8.94,41.3,28.04C167.25,23.06,85.95,45.66,83.97,46.17 M177.34,38.22c5.6-1.68,11.63-4.27,11.63-13.47
		c0-7.99-16.46-47.16-60.44-47.16c-25.47,0-63.39,19.35-63.39,72.78c0,34.57,19.16,69.48,61.94,69.48c51.17,0,61.9-41.26,61.9-49.34
		c0-6.59-4.51-9.53-9.11-9.53c-7.65,0-9.52,10.16-10.6,15.58c-2.09,9.03-13.64,26.25-42.28,26.46c-12.33,0.08-22.16-3.5-29.34-10.69
		c-9.05-9.01-12.13-21.82-12.59-28.58l0.13-0.06C87.32,63.13,177.34,38.22,177.34,38.22"/>
</g>
<g id="g3246" transform="translate(495.1259,59.8575)">
	<path id="path3248" inkscape:connector-curvature="0" class="st0" d="M-98.89,99.03c-4.42,5.06-12.85,11.04-26.85,11.04
		c-20.49-0.38-42.17-16.8-42.17-52.43c0-32.53,18.5-56.18,43.87-56.18c25.57,0,36.02,15.42,36.02,53.22
		C-88.03,80.3-90.14,89-98.89,99.03 M-56.34,106.38c-4.35,0-4.73,0.5-10.52,0.5c-1.01,0-1.79-0.37-2.39-1.6
		c-0.95-2.49-0.95-8.78-0.95-24.75l0.05-129.11c0-8.35-4.21-11.28-10.09-11.28c-2.33,0-8.08,0.92-10.92,0.92
		c-4.23,0-5.9-0.66-10.68-0.66c-6.95,0-10.08,4.83-10.08,9.12c0,4.88,3.99,8.45,8.3,8.53c5.15,0.1,5.81-0.82,11.13-0.44
		c3.36,0.25,4.04,0.64,4.06,25.75v14.15c-8.71-8.5-20.37-12.88-34.96-12.88c-31.39,0-63.29,24.96-63.29,72.78
		c0,40.89,24.92,69.43,60.56,69.48h0.05h0.05c19.04,0,31.38-7.61,38.54-14.75c0,0-0.69,11.93,8.23,11.93
		c5.45,0,6.03-0.53,12.77-0.53c4.24,0,5.92,0.66,10.69,0.66c7,0,10.09-4.79,10.09-9.11C-45.7,114.14-46.26,106.42-56.34,106.38"/>
</g>
<g id="g3250" transform="translate(568.0331,58.7256)">
	<path id="path3252" inkscape:connector-curvature="0" class="st0" d="M301.74,107.51c-2.99,0-9.41,0.51-9.41,0.51
		c-0.02,0-2.07,0.12-2.65-2.29c-0.57-2.32-0.71-5.55-0.71-23.58c0-0.03,0.01-40.15,0.01-40.15c0-26.17-5.91-56.24-52.1-56.24
		c-19.26,0-31.46,7.53-38.62,14.75v-1.08c0-7.55-3.79-10.97-9.98-10.97c-3.14,0-6.9,0.64-11.03,0.64c-4.23,0-5.92-0.65-10.68-0.65
		c-6.99,0-10.09,5.31-10.09,9.11c0,1.01,0.66,8.72,10.63,8.72c2.43,0,8.27-0.62,9.78-0.5c3.08,0.25,3.08,2.51,3.08,26.63v73.34
		c0,1.6-1.06,2.38-3.23,2.25c0,0-7.35-0.51-8.72-0.51c-10.16,0-10.72,7.76-10.72,8.72c0,4.92,4.2,9.12,10.08,9.12
		c4.77,0,8.71-0.85,20.38-0.85c17.94,0,16.36,0.85,23.91,0.85c7,0,10.07-5.5,10.07-9.12c0-0.95-0.55-8.72-10.72-8.72
		c-1.56,0-9.44,0.51-9.44,0.51c-3.29-0.1-3.31-1.68-3.31-25.86V50.89c0-32.53,12.79-48.29,39.19-48.29
		c23.31,0,33.23,11.39,33.23,38.2v65.3c0,1.89-2.2,1.92-3.23,1.92c0,0-7.4-0.51-8.72-0.51c-10.16,0-10.72,7.76-10.72,8.72
		c0,3.62,3.02,9.12,10.09,9.12c5.66,0,8.37-0.83,17.94-0.83c0.06,0,11.18-0.02,14.81,0.17c0.55,0.04,6.05,0.66,10.68,0.66
		c7.89,0,10.93-5.07,10.93-9.12C312.46,112.94,310.08,107.51,301.74,107.51"/>
</g>
<g id="g3254" transform="translate(580.9496,67.8948)">
	<path id="path3256" inkscape:connector-curvature="0" class="st0" d="M372.72,38.79l-1.82-0.26c-36.94-5.51-40.69-7.45-40.69-20.78
		c0-14.13,12.83-23.96,31.18-23.96c11.24,0,19.78,3.22,25.69,9.12c2.74,2.74,5.7,7.79,5.9,10.91c0.2,3.12-0.6,4.77-0.6,8.74
		c0,5.31,3.57,10.2,9.22,10.2c0.96,0,8.82-0.65,8.82-10.85c0-1.96-0.62-8.31-0.62-9.79c0-7.31,1.81-16.24,1.81-20.97
		c0-10.63-4.68-12.85-8.67-12.85c-4.86,0-8.34,3.71-9.42,9.41c-8.39-7.16-19.44-10.92-32.86-10.92c-27.64,0-49.39,18.57-49.39,42.26
		c0,28.46,23.81,33.83,46.16,36.64c33.18,4.17,41.66,6.91,41.66,22.49c0,12.69-10.87,23.88-35.11,23.88
		c-20.24,0-37.7-8.83-37.7-20.8c0-4.31,0.62-7.87,0.62-11.09c0-5.28-3.83-10.2-9.22-10.2c-0.96,0-8.81,0.56-8.81,10.75
		c0,5.24,0.84,7.35,0.4,24.18c-0.05,1.96-1.2,8.28-1.61,10.64c-1.68,9.68,4.68,12.85,8.66,12.85c4.88,0,8.35-3.71,9.42-9.42
		c3.8,3.25,9.29,5.12,13.63,6.56c4.32,1.45,13.04,3.54,24.6,3.54c31.27,0,54.07-17.34,54.07-43.35
		C418.05,45.48,388.58,41.15,372.72,38.79"/>
</g>
<g id="g3258" transform="translate(515.0931,52.0003)">
	<path id="path3260" inkscape:connector-curvature="0" class="st0" d="M10.83,157.92c-18.73,0-53.34-3.41-53.34-21.15
		c0-16.12,25.16-21.86,48.71-21.86c55.56,0,54.6,18.15,54.6,21.03C60.8,149.7,42.13,157.92,10.83,157.92 M-20.75,20.03
		C-14.62,13.47-5.29,10,6.2,10c10.76,0,19.6,2.96,25.55,8.53c5.79,5.44,8.85,13.52,8.85,23.34c0,17.56-13.82,29.36-34.4,29.36
		c-9.89,0-18.71-2.42-24.82-6.81c-6.96-4.99-10.34-12.29-10.34-22.28C-28.96,33.53-26.05,25.68-20.75,20.03 M51.51,103.81
		c-11.42-4.08-32.03-7.55-59.75-5.51c-12.09,0.69-28.43,0.86-34.43-4.75c-1.77-1.79-2.7-4.01-2.7-6.86c0-4.43,4.66-10.31,15.11-9.48
		c0.51,0.41,12.96,11.24,36.46,11.24c14.32,0,27.34-4.53,36.66-12.75c9.66-8.51,14.97-20.53,14.97-33.85
		c0-14.7-4.95-27.12-14.3-35.9C34.34-2.67,21.44-7.23,6.2-7.23c-20.69,0-32.92,8.41-39.53,15.48c-8.31,8.86-12.87,20.89-12.87,33.88
		c0,7.21,1.31,13.78,3.86,19.58c-11.05,2.77-22.01,9.35-22.01,24.73c0,7.64,4.64,20.06,16.84,25.32
		c-7.96,6.55-12.24,15.19-12.24,25.01c0,26.27,29.57,38.39,70.57,38.39c38.37,0,67.2-12.55,67.2-39.22
		C78.03,125.6,73.43,111.63,51.51,103.81"/>
</g>
<g id="g3262" transform="translate(447.4764,58.5349)">
	<path id="path3264" inkscape:connector-curvature="0" class="st0" d="M-360.73,108.94c-15.45,0-37.43-0.95-42.59-2.27
		c-1.64-0.4-1.75-0.4-1.75-16.72V45.43c0-8.82,0-8.82,1.55-8.97c6.03-0.74,22.12-0.74,34.92-0.74c28.2,0,55.7,2.79,55.7,36
		C-312.89,108.94-345.19,108.94-360.73,108.94 M-405.06-27.11c0-8.3,0.11-8.33,1.4-8.64c3.96-0.85,30.9-2.02,42.49-2.02
		c20.27,0,40.91,3.23,40.91,27.6c0,15.59-11.48,22.61-21.08,25.69C-351.31,19-380.42,19-392.94,19c-6.02,0-10.38,0-11.57-0.73
		c-0.49-0.42-0.46-0.75-0.55-4.8C-405.06,13.47-405.06-27.11-405.06-27.11z M-323.78,25.57c15.35-8.16,23.06-20.25,23.06-36.98
		c0-19.93-10.39-43.71-59.48-43.71c-6.19,0-43.2,1.6-50.36,1.71c-1.34,0.02-10.4,0.09-14.93-0.19c-4.64-0.29-8.77-0.93-11.8-0.93
		c-1.16,0-2.25,0.17-3.23,0.46c-4.36,1.27-6.85,5.05-6.85,8.66c0,0.82,0.42,6.62,6.93,8.27c1.08,0.27,2.33,0.45,3.79,0.45
		c3.9,0,4.66-0.52,9.46-0.52c3.2,0,3.31,1.64,3.31,24.1c0,0,0.3,57.05-0.13,105.37c-0.14,14.84-0.68,15.77-3.3,15.91
		c-3.53,0.19-5.78-0.31-9.46-0.31c-1.44,0-3.77,0.44-3.79,0.44c-6.51,1.66-6.93,7.46-6.93,8.27c0,3.62,2.49,7.4,6.85,8.68
		c0.98,0.29,2.07,0.45,3.23,0.45c2.42,0,7.15-0.63,11.8-0.92c4.4-0.28,12.93-0.21,12.93-0.21c6.96,0.1,27.52,0.83,27.52,0.83
		c10.62,0.45,21.5,0.81,28.58,0.81c54.97,0,63.15-33.35,63.15-53.25C-293.42,56.83-298.79,35.8-323.78,25.57"/>
</g>
<g id="g3266" transform="translate(519.5103,77.6029)">
	<path id="path3268" inkscape:connector-curvature="0" class="st0" d="M35.11-33.98c-3.75-15.4,6.15-26.99,19.24-30.18
		c17.84-4.34,37.13,4.7,41.2,21.38c0,0,1.1,5.24-2.74,5.7c-1.9,0.23-3.7-1.14-4.11-3.31c-0.46-2.34,0.69-4.09,0.12-5.51
		c-0.51-1.29-2.33-1.68-5.29-0.86c-14.22,3.92-17.63,22.04-28.7,24.74c-7.37,1.79-12.15-1.88-13.31-6.69
		c-2.64-10.81,13.44-29.95,30.16-28.18c0,0-7.35-1.89-14.51-0.14C50.01-55.26,37.87-49.1,35.11-33.98"/>
</g>
</svg>
