<?xml version="1.0" standalone="no"?>
<!DOCTYPE svg PUBLIC "-//W3C//DTD SVG 20010904//EN"
 "http://www.w3.org/TR/2001/REC-SVG-20010904/DTD/svg10.dtd">
<svg version="1.0" xmlns="http://www.w3.org/2000/svg"
 width="499.000000pt" height="398.000000pt" viewBox="0 0 499.000000 398.000000"
 preserveAspectRatio="xMidYMid meet">

<g transform="translate(0.000000,398.000000) scale(0.100000,-0.100000)"
fill="#000000" stroke="none">
<path d="M0 1990 l0 -1990 2495 0 2495 0 0 1990 0 1990 -2495 0 -2495 0 0
-1990z m3800 797 c30 -8 113 -33 184 -56 113 -36 134 -40 162 -31 35 12 78 56
89 90 8 24 50 27 59 4 3 -9 6 -145 6 -304 0 -242 -2 -289 -15 -300 -25 -20
-40 -5 -69 69 -126 322 -455 521 -754 457 -206 -44 -352 -202 -417 -450 -53
-206 -67 -417 -41 -627 36 -288 112 -454 251 -548 117 -80 264 -113 403 -92
84 13 169 37 190 54 11 9 13 60 10 258 -3 231 -4 249 -24 275 -29 39 -85 65
-154 71 -55 5 -60 8 -60 29 l0 24 443 -2 442 -3 3 -21 c3 -19 -4 -23 -65 -34
-84 -16 -99 -23 -123 -63 -18 -29 -20 -52 -20 -270 0 -138 -4 -246 -10 -257
-11 -20 -138 -65 -280 -99 -192 -46 -499 -64 -665 -41 -319 46 -592 228 -737
490 -121 219 -132 553 -27 805 99 238 306 437 554 531 136 51 231 64 430 59
109 -2 202 -10 235 -18z m-2002 -23 c256 -41 388 -120 467 -280 32 -65 38 -88
43 -164 10 -189 -80 -344 -256 -438 -94 -50 -192 -71 -404 -84 l-188 -12 0
-340 c0 -320 1 -343 20 -373 28 -47 58 -62 149 -75 74 -11 82 -14 79 -33 -3
-20 -8 -20 -463 -20 l-460 0 -3 21 c-3 20 3 22 65 29 37 3 88 16 112 27 80 38
76 -5 76 833 0 588 -3 748 -13 777 -20 56 -60 79 -158 92 -78 9 -84 12 -84 33
l0 23 460 0 c368 0 480 -3 558 -16z"/>
<path d="M1460 2286 l0 -406 33 -1 c162 -7 271 48 326 167 38 79 56 221 42
322 -31 220 -120 310 -313 320 l-88 4 0 -406z"/>
</g>
</svg>
